<?xml version="1.0" encoding="utf-8"?>
<!-- Generator: Adobe Illustrator 25.0.1, SVG Export Plug-In . SVG Version: 6.00 Build 0)  -->
<svg version="1.1" id="Layer_1" xmlns="http://www.w3.org/2000/svg" xmlns:xlink="http://www.w3.org/1999/xlink" x="0px" y="0px"
	 viewBox="0 0 200 200" style="enable-background:new 0 0 200 200;" xml:space="preserve">
<style type="text/css">
	.st0{fill:url(#SVGID_1_);}
</style>
<g>
	<g>
		<linearGradient id="SVGID_1_" gradientUnits="userSpaceOnUse" x1="38.3056" y1="38.3056" x2="226.6018" y2="226.6018">
			<stop  offset="0" style="stop-color:#9F84EA"/>
			<stop  offset="1" style="stop-color:#7FC2FB"/>
		</linearGradient>
		<path class="st0" d="M180.02,200H19.98C8.95,200,0,191.05,0,180.02V19.98C0,8.95,8.95,0,19.98,0h160.04
			C191.05,0,200,8.95,200,19.98v160.04C200,191.05,191.05,200,180.02,200z M95.1,124.81c0.61,0.92,1.13,1.66,1.61,2.42
			c4.46,7.04,8.88,14.1,13.38,21.1c3.42,5.32,7.39,10.1,13.72,12.11c9.1,2.88,18.53,2.46,27.9,2.46c0.42,0,1.17-0.95,1.22-1.5
			c0.15-1.95,0-3.92,0.09-5.88c0.06-1.4-0.55-1.79-1.87-2.18c-2.44-0.71-5.07-1.43-7.05-2.91c-2.71-2.02-5.28-4.48-7.21-7.24
			c-7.88-11.32-15.47-22.83-23.2-34.25c-0.62-0.92-0.56-1.55,0.18-2.37c4.17-4.63,8.21-9.38,12.47-13.93
			c3.41-3.64,7.14-7,11.82-8.93c2.68-1.1,5.58-1.66,8.67-2.54c0-1.91-0.1-4.07,0.03-6.22c0.12-1.8-0.6-2.26-2.29-2.26
			c-12.6,0.05-25.21,0.05-37.82,0c-1.83-0.01-2.68,0.51-2.45,2.58c0.15,1.34,0.07,2.7-0.02,4.04c-0.13,1.84,0.59,2.6,2.48,2.57
			c1.09-0.02,2.23,0.31,3.28,0.67c2.33,0.78,3.41,3.24,2.38,5.47c-0.84,1.81-1.98,3.56-3.29,5.07c-6.5,7.43-13.11,14.77-19.68,22.13
			c-0.35,0.39-0.76,0.72-1.49,1.42c0.24-3.28,0.62-6.11,0.63-8.94c0.1-23.39,0.12-46.78,0.2-70.18c0-1.56-0.55-2.08-2.09-2.05
			c-4.13,0.07-8.26,0.02-12.4,0.02c-7.7,0-15.41,0.04-23.11-0.03c-1.72-0.01-2.41,0.5-2.15,2.54c0.19,1.45,0.22,2.93,0.04,4.38
			c-0.2,1.58,0.07,2.43,1.53,2.31c0.55-0.05,1.1-0.04,1.65,0.02c3.54,0.4,7.2,0.88,9.04,4.37c0.99,1.88,1.48,4.25,1.48,6.4
			c0.09,28.93,0.06,57.85,0.06,86.78c0,0.84-0.01,1.68-0.11,2.52c-0.64,5.2-3.76,8.16-8.97,8.55c-0.98,0.07-1.96,0.21-2.93,0.2
			c-1.32-0.02-1.9,0.49-1.82,1.87c0.09,1.6,0.02,3.22,0.02,4.83c0,2.78,0,2.8,2.76,2.8c15.34,0,30.67,0,46.01,0
			c4.85,0,4.85,0,4.85-4.94c0-4.41,0-4.41-4.38-4.74c-6.02-0.45-9.35-3.86-9.47-9.87c-0.08-4.13-0.06-8.26,0-12.4
			c0.01-0.7,0.23-1.64,0.7-2.04C91.25,127.55,93.15,126.25,95.1,124.81z"/>
	</g>
</g>
</svg>
